<?xml version="1.0" encoding="UTF-8" standalone="no"?>
<svg width="17px" height="15px" viewBox="0 0 17 15" version="1.1" xmlns="http://www.w3.org/2000/svg" xmlns:xlink="http://www.w3.org/1999/xlink" xmlns:sketch="http://www.bohemiancoding.com/sketch/ns">
    <!-- Generator: Sketch 3.3.2 (12043) - http://www.bohemiancoding.com/sketch -->
    <title>noun_17448_cc</title>
    <desc>Created with Sketch.</desc>
    <defs></defs>
    <g id="Welcome" stroke="none" stroke-width="1" fill="none" fill-rule="evenodd" sketch:type="MSPage">
        <g id="Desktop" sketch:type="MSArtboardGroup" transform="translate(-94.000000, -382.000000)" fill="#E74C3C">
            <g id="Cartão-Copy-2" sketch:type="MSLayerGroup" transform="translate(45.000000, 134.000000)">
                <g id="Group" transform="translate(49.000000, 248.000000)" sketch:type="MSShapeGroup">
                    <g id="noun_17448_cc">
                        <path d="M12.00489,0.13875 C10.25032,0.13875 9.14277,0.98638125 8.5,1.75284375 C7.85723,0.98638125 6.74985,0.13875 4.9946,0.13875 C2.00685,0.13875 0,2.88616875 0,5.4520125 C0,9.18729375 7.22806,14.1934313 8.05222,14.751825 C8.1872,14.8431188 8.3436,14.88885 8.5,14.88885 C8.6564,14.88885 8.8128,14.8431188 8.94778,14.751825 C9.77194,14.1934313 17,9.18729375 17,5.4520125 C17,2.88616875 14.99281,0.13875 12.00489,0.13875 L12.00489,0.13875 Z" id="Shape"></path>
                    </g>
                </g>
            </g>
        </g>
    </g>
</svg>