<?xml version="1.0" encoding="UTF-8" standalone="no"?>
<svg width="53px" height="53px" viewBox="0 0 53 53" version="1.1" xmlns="http://www.w3.org/2000/svg" xmlns:xlink="http://www.w3.org/1999/xlink" xmlns:sketch="http://www.bohemiancoding.com/sketch/ns">
    <!-- Generator: Sketch 3.3.2 (12043) - http://www.bohemiancoding.com/sketch -->
    <title>Logo</title>
    <desc>Created with Sketch.</desc>
    <defs></defs>
    <g id="Welcome" stroke="none" stroke-width="1" fill="none" fill-rule="evenodd" sketch:type="MSPage">
        <g id="Landing-Page" sketch:type="MSArtboardGroup" transform="translate(-42.000000, -14.000000)">
            <g id="Navbar" sketch:type="MSLayerGroup">
                <g id="Logo" transform="translate(42.000000, 14.000000)" sketch:type="MSShapeGroup">
                    <path d="M17.1964297,31.8902656 C24.2048516,31.8099375 25.4656719,35.4300859 25.4656719,35.4300859 C25.4938281,34.9679922 25.5352344,34.5208047 25.5845078,34.0810703 C24.5145703,27.3090781 20.1938281,25.2714766 20.1938281,25.2714766 C24.2686172,25.5915469 25.7878125,28.4465078 26.341,29.9777109 C26.4080781,29.7445938 26.5,29.5160313 26.5,29.2911953 L26.5,21.1229844 C26.0859375,21.3167656 26.2093281,21.4227656 26.2093281,21.4227656 C26.2093281,21.4227656 22.1303984,17.8527188 22.2107266,13.5419141 C22.2881562,9.23359375 26.4817812,5.81550781 26.4817812,5.81550781 C26.4817812,5.81550781 26.5,5.83414063 26.5,5.86726563 L26.5,0.278664063 C12.0078125,0.278664063 0.411992187,12.0517031 0.411992187,26.5737031 C0.411992187,40.4137422 11.0202734,51.7487031 24.5584609,52.7834453 C24.9514062,46.5000469 24.9812187,40.3764766 24.9812187,40.3764766 C23.7146016,35.9199219 17.1964297,31.8902656 17.1964297,31.8902656 L17.1964297,31.8902656 Z M16.3418047,17.1479844 C18.8311484,19.2369297 18.8270078,23.3378047 18.8270078,23.3378047 C18.8270078,23.3378047 14.7890703,24.0520625 12.3005547,21.961875 C9.81203906,19.8741719 9.81452344,15.7732969 9.81452344,15.7732969 C9.81452344,15.7732969 13.8524609,15.0590391 16.3418047,17.1479844 L16.3418047,17.1479844 Z M10.7097266,32.5548359 C8.43983594,31.81325 7.31565625,29.0150156 7.31565625,29.0150156 C7.31565625,29.0150156 9.87290625,27.4200469 12.1452812,28.1616328 C14.416,28.9036328 15.5393516,31.7014531 15.5393516,31.7014531 C15.5393516,31.7014531 12.9808594,33.29725 10.7097266,32.5548359 L10.7097266,32.5548359 Z" id="Fill-1" fill="#A1D982"></path>
                    <path id="Fill-2" fill="#A1D982" d="M26.5654219,52.8683281 C26.5786719,52.8683281 26.5915078,52.8691563 26.6043438,52.8691563 L26.6043438,52.8675 C26.5915078,52.8675 26.5786719,52.8683281 26.5654219,52.8683281"></path>
                    <path id="Fill-3" fill="#A1D982" d="M25.3944531,52.8381016 C25.2528438,52.8314766 25.1120625,52.8219531 24.9708672,52.8132578 C25.1120625,52.8215391 25.2528438,52.8318906 25.3944531,52.8381016"></path>
                    <path id="Fill-4" fill="#C0F159" d="M26.6043438,52.8691562 C26.6867422,52.8691562 26.7674844,52.8633594 26.8502969,52.8629453 C26.7683125,52.8637734 26.6867422,52.8670859 26.6043438,52.8675 L26.6043438,52.8691562"></path>
                    <path d="M30.4692031,13.6947031 C30.4037812,17.2535703 27.328125,20.2021094 26.5,21.1229844 L26.5,29.2911953 C28.5703125,22.0881641 33.8694844,19.1996641 33.8694844,19.1996641 C28.0635,30.5420781 28.8858281,35.54975 28.8858281,35.54975 C32.5175703,30.9640078 40.6104219,31.3710313 40.6104219,31.3710313 C40.6104219,31.3710313 31.289875,34.5870547 29.4721406,41.0899063 C29.4721406,41.0899063 29.6361094,46.9128672 30.1164219,52.6136797 C29.2762891,52.7304453 28.4253906,52.8082891 27.5624844,52.8447266 C41.6054141,52.3375 52.6919375,40.7739766 52.6919375,26.5737031 C52.6919375,12.0517031 40.9921875,0.278664063 26.5,0.278664063 L26.5,5.86726563 C26.9140625,6.31403906 30.5420781,9.68202344 30.4692031,13.6947031 L30.4692031,13.6947031 Z M47.2006406,21.3718359 C47.2006406,21.3718359 46.1915703,25.6147344 43.1014219,27.1608438 C40.0129297,28.706125 36.0122578,26.9728594 36.0122578,26.9728594 C36.0122578,26.9728594 37.0213281,22.7307891 40.1098203,21.1842656 C43.1999688,19.6373281 47.2006406,21.3718359 47.2006406,21.3718359 L47.2006406,21.3718359 Z M35.3733594,12.5779766 C36.5716563,10.2232031 39.8212187,9.47457813 39.8212187,9.47457813 C39.8212187,9.47457813 41.1271719,12.5423672 39.9272188,14.8967266 C38.7293359,17.2502578 35.4810156,17.9997109 35.4810156,17.9997109 C35.4810156,17.9997109 34.1754766,14.9323359 35.3733594,12.5779766 L35.3733594,12.5779766 Z" id="Fill-5" fill="#C0F159"></path>
                </g>
            </g>
        </g>
    </g>
</svg>