<?xml version="1.0" encoding="UTF-8" standalone="no"?>
<svg width="474px" height="375px" viewBox="0 0 474 375" version="1.1" xmlns="http://www.w3.org/2000/svg" xmlns:xlink="http://www.w3.org/1999/xlink" xmlns:sketch="http://www.bohemiancoding.com/sketch/ns">
    <!-- Generator: Sketch 3.3.2 (12043) - http://www.bohemiancoding.com/sketch -->
    <title>Imported Layers</title>
    <desc>Created with Sketch.</desc>
    <defs></defs>
    <g id="Welcome" stroke="none" stroke-width="1" fill="none" fill-rule="evenodd" sketch:type="MSPage">
        <g id="Landing-Page" sketch:type="MSArtboardGroup" transform="translate(-550.000000, -172.000000)">
            <g id="Hero" sketch:type="MSLayerGroup" transform="translate(-1.000000, 79.000000)">
                <g id="Imported-Layers" transform="translate(551.000000, 93.000000)" sketch:type="MSShapeGroup">
                    <path d="M473.769967,224.403017 C462.8845,224.435345 330.489768,224.723522 313.058055,220.001847 C283.276607,211.935653 206.155436,170.584975 199.968559,170.584975 C189.592121,170.584975 151.630176,184.300185 151.630176,184.300185 L164.444596,209.011392 L262.700184,255.443042 L473.769967,301.345443 L473.769967,224.403017" id="Fill-1" fill="#EFCAA6"></path>
                    <path d="M207.461311,183.007389 C208.908949,190.361453 203.869467,194.497537 196.511176,195.943966 L113.628088,212.246305 C106.270721,213.693658 99.1341484,208.903633 97.6865098,201.547722 C96.2388711,194.193658 101.029844,187.057574 108.387211,185.610222 L194.805789,170.017241 C200.575096,169.883313 206.014596,175.650554 207.461311,183.007389" id="Fill-2" fill="#EFCAA6"></path>
                    <path d="M27.6215371,202.448276 C23.9631777,210.077586 27.3878086,219.3242 35.2680625,223.100062 L130.213574,268.589594 C138.092904,272.366379 147.446664,269.240764 151.1041,261.612377 C154.760611,253.983067 151.336904,244.737377 143.455727,240.962438 L48.5111387,195.471059 C40.6308848,191.695197 31.2762012,194.818966 27.6215371,202.448276" id="Fill-3" fill="#EFCAA6"></path>
                    <path d="M48.5083672,185.018165 C44.8509316,192.649323 48.2755625,201.894089 56.1558164,205.670874 L151.101328,251.160406 C158.980658,254.937192 168.335342,251.811576 171.991854,244.182266 C175.648365,236.553879 172.224658,227.307266 164.34348,223.532328 L69.3988926,178.041872 C61.5195625,174.265086 52.1639551,177.388855 48.5083672,185.018165" id="Fill-4" fill="#EFCAA6"></path>
                    <path d="M47.1521875,195.670567 L100.018252,220.957204 L100.646455,219.643781 L47.7803906,194.357143 L47.1521875,195.670567" id="Fill-5" fill="#D5AD95"></path>
                    <path d="M135.985652,209.514163 L99.4796602,191.647167 L98.8394473,192.955049 L135.345439,210.822044 L135.985652,209.514163" id="Fill-6" fill="#D5AD95"></path>
                    <path d="M251.672953,249.703818 L221.874877,278.939039 C238.088061,288.44335 264.545574,304.256158 283.927488,317.339594 L304.325613,263.712746 L261.700184,254.443042 L251.672953,249.703818" id="Fill-7" fill="#F4F4F4"></path>
                    <path d="M273.140871,235.042796 C268.971635,235.042796 265.239369,235.242303 261.862777,235.60899 L265.693893,237.859914 L260.813309,238.514778 L262.899313,238.690271 L251.672953,249.703818 L261.700184,254.443042 L304.325613,263.712746 L310.365602,247.83436 C310.365602,247.83436 337.340459,255.966133 342.974887,257.145628 C366.755146,262.125924 431.32057,275.294335 472.769967,283.730911 L472.769967,278.927956 C431.414801,270.509852 365.295498,257.027401 341.166955,251.974138 C335.531604,250.794643 308.55767,242.662869 308.55767,242.662869 L308.542889,242.701663 C299.130004,237.771244 286.781193,235.042796 273.140871,235.042796" id="Fill-8" fill="#E5C2A0"></path>
                    <path d="M19.8826289,216.173645 C12.9335938,216.172722 5.44227148,219.333436 1.80793164,230.597291 L91.6104922,311.058805 L91.17075,311.213054 C91.17075,311.213054 96.2702813,315.589286 103.829967,322.008621 L103.844748,322.020628 C124.246568,339.342672 162.577121,371.544643 167.282178,373.019704 C168.454516,373.387315 169.947422,373.559113 171.721172,373.559113 C195.555014,373.559113 270.154135,342.595751 299.407152,339.660406 C301.154111,339.575431 302.92509,339.5117 304.736717,339.467365 L304.777365,339.468288 C305.019408,339.481219 305.247594,339.487685 305.462846,339.487685 C305.835148,339.487685 306.16865,339.469212 306.467047,339.43319 C307.813064,339.411022 309.184949,339.399938 310.586396,339.399938 C323.532924,339.399938 339.08557,340.350369 362.169264,342.267857 C391.122961,344.67303 439.043773,360.785099 472.769967,374.796798 L472.769967,283.730911 L472.769967,372.373153 C439.049316,358.389163 389.112711,339.484914 360.361332,337.096367 C337.274867,335.178879 321.719449,334.227525 308.772922,334.227525 C302.315363,334.227525 296.507256,334.463978 290.737025,334.935961 C285.075807,336.330665 278.985932,337.096367 272.637385,337.096367 C242.707201,337.096367 218.444703,320.22968 218.444703,299.422722 L212.47123,288.165333 L211.358018,289.257081 L151.623291,290.010776 L109.652855,304.730911 C111.655715,299.676724 112.489932,294.337131 111.451549,290.517857 L105.163051,290.597291 L90.8631152,270.513547 L39.732,225.239224 L35.2680625,223.100062 C32.6573242,221.849446 30.535291,219.997537 28.998041,217.802956 C26.4057793,216.89686 23.2065625,216.174569 19.8826289,216.173645" id="Fill-9" fill="#EBE9E9"></path>
                    <path d="M28.998041,217.802956 C30.535291,219.997537 32.6573242,221.849446 35.2680625,223.100062 L39.732,225.239224 L34.9271699,220.984914 C34.496666,220.330973 32.2129629,218.926108 28.998041,217.802956" id="Fill-10" fill="#DBBA99"></path>
                    <path d="M304.325613,263.712746 L283.927488,317.339594 C264.545574,304.256158 238.088061,288.44335 221.874877,278.939039 L212.47123,288.165333 L218.444703,299.422722 C218.444703,320.22968 242.707201,337.096367 272.637385,337.096367 C278.985932,337.096367 285.075807,336.330665 290.737025,334.935961 C296.507256,334.463978 302.315363,334.227525 308.772922,334.227525 C321.719449,334.227525 337.274867,335.178879 360.361332,337.096367 C389.112711,339.484914 439.049316,358.389163 472.769967,372.373153 L472.769967,283.730911 L472.769967,300.345443 L304.325613,263.712746" id="Fill-11" fill="#E0E0DF"></path>
                    <path d="M310.365602,247.83436 L304.325613,263.712746 L472.769967,300.345443 L472.769967,283.730911 C431.32057,275.294335 366.755146,262.125924 342.974887,257.145628 C337.340459,255.966133 310.365602,247.83436 310.365602,247.83436" id="Fill-12" fill="#D2B394"></path>
                    <path d="M262.899313,238.690271 L211.358018,289.257081 L105.163051,290.597291 L67.8782715,238.230296 L87.6888418,223.926724 L262.899313,238.690271" id="Fill-13" fill="#A38774"></path>
                    <path d="M102.036816,320.037562 L97.5396211,316.212746 C106.885066,311.019089 113.897846,291.418411 107.818133,285.142241 L33.1192383,219.000924 C31.6143223,216.716749 7.52735156,205.283867 0,228.6133" id="Fill-14" fill="#F4D9BF"></path>
                    <path d="M41.7431738,216.716749 C35.6634609,222.601293 35.6616133,232.460283 41.7394785,238.7383 L114.968562,314.36915 C121.04458,320.647167 130.901826,320.964901 136.981539,315.082204 C143.062176,309.196736 143.064023,299.337746 136.984311,293.060653 L63.7570742,217.428879 C57.6801328,211.151786 47.8219629,210.832204 41.7431738,216.716749" id="Fill-15" fill="#F4D9BF"></path>
                    <path d="M65.6749414,223.21367 C59.5952285,229.099138 59.5943047,238.959975 65.6712461,245.236145 L138.90033,320.867919 C144.977271,327.144089 154.833594,327.464594 160.91423,321.580049 C166.993943,315.694581 166.995791,305.835591 160.916078,299.557574 L87.6888418,223.926724 C81.6119004,217.649631 71.7537305,217.330049 65.6749414,223.21367" id="Fill-16" fill="#F4D9BF"></path>
                    <path d="M37.4723164,224.097599 L85.1963535,269.029249 L86.1940879,267.969828 L38.4709746,223.037254" id="Fill-17" fill="#D5AD95"></path>
                    <path d="M67.3600039,221.966749 L109.575254,264.81835 L110.612713,263.796798 L68.3974629,220.944273" id="Fill-18" fill="#D5AD95"></path>
                    <path d="M254.64768,268.499076 L254.64768,272.190887 C253.31552,288.785099 241.071102,301.342057 227.296824,300.236453 L97.4897344,289.817734 C79.0353438,289.257081 73.631873,274.364224 74.9640332,257.770936" id="Fill-19" fill="#F4D9BF"></path>
                    <path d="M160.826467,202.962746 L133.557832,208.326355 L135.985652,209.514163 L135.814744,209.8633 L164.34348,223.532328 C167.786588,225.181958 170.37885,227.875308 171.902242,231.022167 L220.870676,235.149015 L163.444596,208.011392 L160.826467,202.962746" id="Fill-20" fill="#E5E5E5"></path>
                    <path d="M194.889857,196.262623 L160.826467,202.962746 L163.444596,208.011392 L220.870676,235.149015 L250.82765,237.673337 C254.05643,236.770936 257.687074,236.061576 261.862777,235.60899 L194.889857,196.262623" id="Fill-21" fill="#D7B595"></path>
                    <path d="M177.152357,185.842057 L129.661125,206.419027 L133.557832,208.326355 L194.889857,196.262623 L177.152357,185.842057" id="Fill-22" fill="#D7B595"></path>
                    <path d="M91.8820977,222.786946 L91.3841543,223.003079 L92.6858281,224.346983 L95.6614785,224.598214 L91.8820977,222.786946" id="Fill-23" fill="#D7B595"></path>
                    <path d="M127.904004,207.180111 L99.9286406,219.300185 L100.646455,219.643781 L100.018252,220.957204 L98.1585859,220.067734 L91.8820977,222.786946 L95.6614785,224.598214 L171.902242,231.022167 C170.37885,227.875308 167.786588,225.181958 164.34348,223.532328 L135.814744,209.8633 L135.345439,210.822044 L127.904004,207.180111" id="Fill-24" fill="#D7B595"></path>
                    <path d="M99.9286406,219.300185 L98.1585859,220.067734 L100.018252,220.957204 L100.646455,219.643781 L99.9286406,219.300185" id="Fill-25" fill="#BF9B86"></path>
                    <path d="M129.661125,206.419027 L127.904004,207.180111 L135.345439,210.822044 L135.985652,209.514163 L129.661125,206.419027" id="Fill-26" fill="#BF9B86"></path>
                    <path d="M261.862777,235.60899 C257.687074,236.061576 254.05643,236.770936 250.82765,237.673337 L260.813309,238.514778 L265.693893,237.859914 L261.862777,235.60899" id="Fill-27" fill="#CEAE90"></path>
                    <path d="M92.6858281,224.346983 L124.152338,256.847291 L260.813309,238.514778 L250.82765,237.673337 L220.870676,235.149015 L95.6614785,224.598214 L92.6858281,224.346983" id="Fill-28" fill="#927968"></path>
                    <path d="M261.99858,238.783559 L173.457045,186.765702 L87.6888418,223.926724 L120.457025,257.770936" id="Fill-29" fill="#A38774"></path>
                    <path d="M87.6888418,223.926724 L123.572174,260.987993 L201.693852,265.185961 C201.693852,265.185961 183.00758,261.259544 168.747369,259.815887 C152.266275,258.14686 132.219205,264.307574 87.6888418,223.926724" id="Fill-30" fill="#937865"></path>
                    <path d="M177.708502,207.084052 L177.708502,98.9769089 L134.094576,49.7373768 C132.856646,48.3408251 130.719832,48.2105911 129.323004,49.4482759 C127.925252,50.6859606 127.794992,52.8214286 129.032922,54.2189039 L170.947928,101.540025 L170.947928,207.084052 C170.947928,208.950739 172.461158,210.46367 174.328215,210.46367 C176.195271,210.46367 177.708502,208.950739 177.708502,207.084052" id="Fill-31" fill="#9E6B5F"></path>
                    <path d="M170.947928,3.69735222 L170.947928,100.258929 C170.947928,102.125616 172.461158,103.638547 174.328215,103.638547 C176.195271,103.638547 177.708502,102.125616 177.708502,100.258929 L177.708502,3.69735222 C177.708502,1.83158867 176.195271,0.31773399 174.328215,0.31773399 C172.461158,0.31773399 170.947928,1.83158867 170.947928,3.69735222" id="Fill-32" fill="#9E6B5F"></path>
                    <path d="M177.035031,47.5169335 L208.29368,5.72105911 C209.412436,4.22660099 209.106648,2.10868227 207.610971,0.991071429 C206.116217,-0.126539409 203.997879,0.179187192 202.880047,1.67364532 L171.621398,43.4695197 C170.503566,44.9639778 170.809354,47.0818966 172.304107,48.1995074 C173.798861,49.3171182 175.917199,49.0113916 177.035031,47.5169335" id="Fill-33" fill="#9E6B5F"></path>
                    <path d="M176.344008,137.561268 L235.385863,93.7232143 C236.884313,92.6102217 237.19749,90.4932266 236.084277,88.9950739 C234.971064,87.4969212 232.85365,87.1838054 231.355201,88.296798 L172.313346,132.134852 C170.813973,133.247845 170.501719,135.363916 171.614932,136.862993 C172.728145,138.361145 174.844635,138.674261 176.344008,137.561268" id="Fill-34" fill="#9E6B5F"></path>
                    <path d="M162.752648,10.4362685 C170.508186,17.0006158 172.426977,21.2068966 168.545051,25.7918719 C164.787842,30.2309113 160.299885,29.5317118 152.544348,22.9664409 C144.787887,16.4030172 140.45698,2.0237069 140.45698,2.0237069 C140.45698,2.0237069 154.995264,3.87376847 162.752648,10.4362685" id="Fill-35" fill="#A5A529"></path>
                    <path d="M140.45698,2.0237069 L168.545051,25.7918719 C168.545051,25.7918719 166.786082,28.9599754 162.606684,28.5775862 C160.358086,28.3734606 157.375045,26.8300493 153.671418,23.9214901 C144.192018,16.4796798 140.45698,2.0237069 140.45698,2.0237069" id="Fill-36" fill="#C2CE4E"></path>
                    <path d="M195.776732,81.8589901 C186.726912,86.4781404 182.104076,86.6240764 179.372316,81.2752463 C176.726473,76.0954433 179.104406,72.2262931 188.15515,67.6062192 C197.204971,62.9852217 212.143271,64.5434113 212.143271,64.5434113 C212.143271,64.5434113 204.825629,77.237069 195.776732,81.8589901" id="Fill-37" fill="#A5A529"></path>
                    <path d="M212.143271,64.5434113 L179.372316,81.2752463 C179.372316,81.2752463 177.128338,78.4304187 179.092396,74.7219828 C180.149256,72.7287562 182.725813,70.5711207 186.838695,68.278633 C197.364793,62.4079433 212.143271,64.5434113 212.143271,64.5434113" id="Fill-38" fill="#C2CE4E"></path>
                    <path d="M163.778098,117.940271 C164.470969,125.080049 163.371613,128.153941 159.148795,128.564039 C155.060855,128.961207 153.13375,126.399015 152.439955,119.258313 C151.745236,112.117611 156.635059,102.70936 156.635059,102.70936 C156.635059,102.70936 163.082455,110.800493 163.778098,117.940271" id="Fill-39" fill="#A5A529"></path>
                    <path d="M156.635059,102.70936 L159.148795,128.564039 C159.148795,128.564039 156.699727,129.302032 154.770773,127.052032 C153.734238,125.841133 152.983166,123.592057 152.540652,120.297414 C151.407115,111.864532 156.635059,102.70936 156.635059,102.70936" id="Fill-40" fill="#C2CE4E"></path>
                    <path d="M210.331645,132.471059 C204.0801,124.463054 203.060193,119.953818 207.795736,116.257389 C212.381619,112.679187 216.633076,114.279865 222.884621,122.288793 C229.13709,130.296798 230.438764,145.258005 230.438764,145.258005 C230.438764,145.258005 216.586885,140.479988 210.331645,132.471059" id="Fill-41" fill="#A5A529"></path>
                    <path d="M230.438764,145.258005 L207.795736,116.257389 C207.795736,116.257389 210.164432,113.51601 214.180312,114.741687 C216.337451,115.40117 218.94357,117.520936 221.975574,121.123153 C229.734807,130.343904 230.438764,145.258005 230.438764,145.258005" id="Fill-42" fill="#C2CE4E"></path>
                    <path d="M201.331711,34.3863916 C195.882973,35.9418103 193.33875,35.5252463 192.419541,32.3054187 C191.527123,29.1881158 193.243596,27.3269704 198.692334,25.7706281 C204.140148,24.2133621 212.143271,26.6702586 212.143271,26.6702586 C212.143271,26.6702586 206.778602,32.8309729 201.331711,34.3863916" id="Fill-43" fill="#A5A529"></path>
                    <path d="M212.143271,26.6702586 L192.419541,32.3054187 C192.419541,32.3054187 191.497561,30.5080049 192.970143,28.6902709 C193.761863,27.7121305 195.403506,26.8088054 197.898766,25.9959975 C204.288885,23.9159483 212.143271,26.6702586 212.143271,26.6702586" id="Fill-44" fill="#C2CE4E"></path>
                    <path d="M143.73657,134.3867 C149.340512,133.543411 151.809904,134.282328 152.308771,137.593596 C152.792857,140.798645 150.852818,142.426108 145.248877,143.27032 C139.645859,144.115456 132.023354,140.651786 132.023354,140.651786 C132.023354,140.651786 138.1354,135.229988 143.73657,134.3867" id="Fill-45" fill="#A5A529"></path>
                    <path d="M132.023354,140.651786 L152.308771,137.593596 C152.308771,137.593596 152.993328,139.494458 151.299027,141.108067 C150.388133,141.976293 148.643945,142.661638 146.064617,143.147475 C139.461094,144.391626 132.023354,140.651786 132.023354,140.651786" id="Fill-46" fill="#C2CE4E"></path>
                    <path d="M135.314029,66.6299261 C140.759072,68.1973522 142.69634,69.8968596 141.770664,73.1157635 C140.874551,76.2312192 138.433797,76.9027094 132.98783,75.3362069 C127.541863,73.7706281 122.054324,67.4482759 122.054324,67.4482759 C122.054324,67.4482759 129.86991,65.0634236 135.314029,66.6299261" id="Fill-47" fill="#A5A529"></path>
                    <path d="M122.054324,67.4482759 L141.770664,73.1157635 C141.770664,73.1157635 141.599756,75.1283867 139.387188,75.8903941 C138.197297,76.299569 136.326545,76.1970443 133.779551,75.5643473 C127.258248,73.945197 122.054324,67.4482759 122.054324,67.4482759" id="Fill-48" fill="#C2CE4E"></path>
                    <path d="M223.013033,89.6028325 C222.47167,93.9495074 221.40742,95.6342365 218.83733,95.3137315 C216.348537,95.0061576 215.542959,93.2235222 216.082475,88.8759236 C216.621066,84.5283251 220.790303,79.5775862 220.790303,79.5775862 C220.790303,79.5775862 223.553473,85.2570813 223.013033,89.6028325" id="Fill-49" fill="#C2CE4E"></path>
                    <path d="M220.790303,79.5775862 L218.83733,95.3137315 C218.83733,95.3137315 217.28068,95.4273399 216.431682,93.8294335 C215.973463,92.9704433 215.828422,91.528633 216.003025,89.507697 C216.454777,84.333436 220.790303,79.5775862 220.790303,79.5775862" id="Fill-50" fill="#A5A529"></path>
                    <path d="M165.558314,43.3633005 C169.333076,45.5892857 170.454604,47.2361453 169.139072,49.4667488 C167.866037,51.6262315 165.908445,51.6567118 162.133684,49.4307266 C158.359846,47.2075123 155.47473,41.4134852 155.47473,41.4134852 C155.47473,41.4134852 161.786324,41.1391626 165.558314,43.3633005" id="Fill-51" fill="#A5A529"></path>
                    <path d="M155.47473,41.4134852 L169.139072,49.4667488 C169.139072,49.4658251 168.622652,50.9399631 166.818416,51.0831281 C165.84932,51.1597906 164.467273,50.7201355 162.683361,49.7549261 C158.115031,47.2823276 155.47473,41.4134852 155.47473,41.4134852" id="Fill-52" fill="#C2CE4E"></path>
                    <path d="M213.070795,108.163485 L237.187328,118.787254 C238.895486,119.540025 240.890955,118.765086 241.643875,117.057266 C242.396795,115.349446 241.621703,113.354372 239.913545,112.601601 L215.797012,101.977833 C214.08793,101.225062 212.093385,102 211.340465,103.70782 C210.587545,105.41564 211.362637,107.410714 213.070795,108.163485" id="Fill-53" fill="#9E6B5F"></path>
                    <path d="M176.623004,147.954126 L144.307496,118.088978 C142.936535,116.821736 140.797873,116.905788 139.531305,118.276478 C138.263813,119.647167 138.347881,121.785406 139.718842,123.052648 L172.03435,152.916872 C173.405311,154.184113 175.543049,154.100062 176.810541,152.729372 C178.078033,151.358682 177.993965,149.220443 176.623004,147.954126" id="Fill-54" fill="#9E6B5F"></path>
                    <path d="M166.442418,208.453818 C166.83135,208.174877 167.227672,207.932882 167.625842,207.702894 C168.030479,207.501539 168.427725,207.261392 168.837904,207.090517 C169.24716,206.913177 169.649949,206.704433 170.066596,206.560345 C170.480471,206.407943 170.891574,206.237993 171.309145,206.098522 L171.890232,205.903633 L172.915682,206.951047 L173.091209,207.190271 C173.158648,207.281712 173.232555,207.367611 173.306461,207.449815 C173.451502,207.6133 173.618715,207.740764 173.743432,207.845135 C173.871844,207.956897 173.990094,208.015086 174.066771,208.034483 L174.16285,208.051108 L174.23768,208.043719 L174.349463,208.038177 L174.524066,207.982759 L174.744861,207.868227 C174.823387,207.824815 174.905607,207.792488 174.992447,207.70936 C175.075592,207.636392 175.167975,207.574507 175.2659,207.51447 L175.419256,207.404557 L175.4636,207.393473 C175.433113,207.466441 175.499629,207.393473 175.571687,207.275246 L176.431771,205.851909 L177.302941,206.081897 C177.731598,206.195505 178.156559,206.343288 178.583367,206.472599 C179.0111,206.592672 179.430518,206.776478 179.853631,206.930727 C180.277668,207.07851 180.692467,207.294643 181.111885,207.47383 C181.527607,207.680727 181.941482,207.900554 182.350738,208.157328 L182.324871,208.340209 L177.079375,207.645628 L177.23273,207.5625 C177.096004,207.844212 176.998078,208.127771 176.794836,208.419643 C176.577736,208.690271 176.337541,208.868534 176.097346,209.089286 C175.984639,209.20197 175.845141,209.286022 175.709338,209.373768 C175.568916,209.455049 175.447895,209.56681 175.288996,209.619458 C175.135641,209.680419 174.988752,209.756158 174.82893,209.801416 C174.664488,209.830973 174.500047,209.874384 174.332834,209.888239 C174.164697,209.875308 173.991941,209.887315 173.8275,209.847599 C173.667678,209.797722 173.493998,209.779249 173.348957,209.69335 C173.042246,209.559421 172.770641,209.362685 172.53876,209.137315 C172.06576,208.686576 171.72302,208.14532 171.458805,207.556958 L171.623246,207.643781 L166.479371,208.634852 L166.442418,208.453818" id="Fill-55" fill="#937865"></path>
                    <path d="M89.3628184,309.229064 C89.3628184,309.229064 159.023154,369.012931 165.474246,371.035714 C183.474113,376.679187 277.183543,336.10899 302.969434,337.485222 C328.756248,338.86053 205.490785,268.499076 205.490785,268.499076" id="Fill-56" fill="#F4D9BF"></path>
                    <path d="M272.637385,340.283867 C242.707201,340.283867 218.443779,323.41718 218.443779,302.610222 L198.968559,265.907328 C233.341432,259.112993 230.504355,238.230296 273.140871,238.230296 C303.069207,238.230296 326.830066,251.326663 326.830066,272.133621 L326.830066,302.610222 C326.830066,323.41718 302.566645,340.283867 272.637385,340.283867" id="Fill-57" fill="#F4D9BF"></path>
                    <path d="M472.769967,282.115456 C431.414801,273.697352 365.295498,260.214901 341.166955,255.161638 C335.532527,253.982143 308.55767,245.850369 308.55767,245.850369 L272.637385,340.283867 C298.055592,336.478448 314.069229,336.438732 360.361332,340.283867 C389.112711,342.672414 439.049316,358.434421 472.769967,372.375 L472.769967,282.115456" id="Fill-58" fill="#F4D9BF"></path>
                    <path d="M213.684217,299.873461 L94.4032246,290.3008 C87.8421973,289.649631 82.7611426,287.018165 79.2903203,282.481219 C75.4481191,277.456589 74.325668,270.974446 74.0614531,266.421798 C73.7759902,261.5117 74.3820215,257.831897 74.4078887,257.676724 L74.4910332,257.178879 L201.693852,265.185961 L182.114238,264.404557 L75.4499668,258.363916 C75.1081504,261.011084 73.8905449,273.567118 80.1901289,281.798645 C83.463252,286.07697 88.279168,288.558805 94.5039219,289.1758 L213.775676,298.747537 L213.684217,299.873461" id="Fill-59" fill="#D5AD95"></path>
                    <path d="M119.646828,291.996613 L194.873229,297.797106 C194.873229,297.797106 158.82176,301.635776 119.646828,291.996613" id="Fill-60" fill="#D5AD95"></path>
                </g>
            </g>
        </g>
    </g>
</svg>